#N canvas 790 193 450 300 10;
#X obj 23 23 inlet;
#X obj 23 53 f;
#X obj 113 53 f;
#X obj 203 53 t b;
#X obj 283 53 f;
#X obj 23 113 * 0.2;
#X obj 113 113 * 0.1;
#X obj 283 113 * 0.4;
#X obj 23 143 pack f f f f;
#X obj 23 173 outlet;
#X obj 50 83 r envelope_a;
#X obj 140 83 r envelope_d;
#X obj 203 113 0.8;
#X obj 310 83 r envelope_r;
#X obj 218 83 r envelope_s;
#X connect 0 0 1 0;
#X connect 0 0 2 0;
#X connect 0 0 3 0;
#X connect 0 0 4 0;
#X connect 1 0 5 0;
#X connect 2 0 6 0;
#X connect 3 0 12 0;
#X connect 4 0 7 0;
#X connect 5 0 8 0;
#X connect 6 0 8 1;
#X connect 7 0 8 3;
#X connect 8 0 9 0;
#X connect 10 0 5 1;
#X connect 11 0 6 1;
#X connect 12 0 8 2;
#X connect 13 0 7 1;
#X connect 14 0 12 1;
