#N canvas 711 120 450 507 10;
#X obj 105 2 inlet;
#X obj 145 2 inlet;
#X obj 145 32 unpack f f f f;
#X text 13 -47 ADSR patch modified from: http://libremusicproduction.com/tutorials/creating-simple-synthesizer-pure-data-%E2%80%93-part-ii
;
#X obj 58 62 f;
#X obj 105 92 sel 0;
#X msg 105 152 stop;
#X obj 132 122 t b b b;
#X obj 103 212 0;
#X obj 151 212 pack 1 0;
#X obj 235 62 f;
#X obj 265 62 f;
#X obj 295 62 f;
#X obj 235 152 + 1;
#X obj 235 182 delay;
#X obj 235 212 pack 0 0 0;
#X obj 235 242 route 0;
#X obj 13 212 pack 0 0;
#X obj 103 272 line~;
#X obj 103 302 outlet~;
#X text 72 76 r;
#X text 309 76 s;
#X text 279 76 d;
#X text 249 76 a;
#X connect 0 0 5 0;
#X connect 1 0 2 0;
#X connect 2 0 10 0;
#X connect 2 1 11 0;
#X connect 2 2 12 0;
#X connect 2 3 4 0;
#X connect 4 0 17 1;
#X connect 5 0 6 0;
#X connect 5 0 17 0;
#X connect 5 1 7 0;
#X connect 6 0 14 0;
#X connect 7 0 14 0;
#X connect 7 1 9 0;
#X connect 7 2 8 0;
#X connect 8 0 18 0;
#X connect 9 0 18 0;
#X connect 10 0 13 0;
#X connect 10 0 9 1;
#X connect 11 0 15 2;
#X connect 12 0 15 1;
#X connect 13 0 14 1;
#X connect 14 0 15 0;
#X connect 15 0 16 0;
#X connect 16 0 18 0;
#X connect 17 0 18 0;
#X connect 18 0 19 0;
