#N canvas 634 142 665 513 10;
#X obj 191 281 r keysig;
#X obj 137 221 list;
#X obj 164 251 list;
#X obj 110 191 t b b b;
#X obj 268 101 t l l;
#X obj 349 101 t l l;
#X obj 295 131 print dh;
#X obj 376 131 print ph;
#X obj 416 101 t l l;
#X obj 491 101 t l l;
#X obj 345 281 r keysig;
#X obj 320 251 list;
#X obj 295 221 list;
#X obj 270 191 t b b b;
#X obj 110 161 t b b;
#X obj 443 131 print dl;
#X obj 518 131 print pl;
#N canvas 107 206 575 464 controls 0;
#X msg 397 136 0 67 69 71 72 74 76 78;
#X obj 397 106 sel 0 1 2 3 4 5 6;
#X obj 107 116 hradio 17 1 0 7 keysig_pre empty empty 0 -8 0 10 -262144
-1 -1 3;
#X msg 397 166 0 65 67 69 70 72 74 76;
#X msg 397 196 0 60 62 64 65 67 69 71;
#X msg 397 226 0 62 64 66 67 69 71 73;
#X msg 397 256 0 70 72 74 75 77 79 81;
#X msg 397 286 0 69 71 73 74 76 78 80;
#X msg 397 316 0 63 65 67 68 70 72 74;
#X obj 397 346 s keysig;
#X obj 37 76 loadbang;
#X text 109 100 G;
#X text 127 100 F;
#X text 144 100 C;
#X text 161 100 D;
#X text 176 100 Bb;
#X text 196 100 A;
#X text 210 100 Eb;
#X obj 37 116 bng 17 250 50 0 empty empty empty 17 7 0 10 -262144 -1
-1;
#X obj 397 76 r keysig_pre;
#X obj 107 156 hradio 17 1 0 5 high_octave empty empty 0 -8 0 10 -262144
-1 -1 2;
#X text 107 140 -2;
#X text 125 140 -1;
#X text 145 140 0;
#X text 158 140 +1;
#X text 176 140 +2;
#X obj 107 196 hradio 17 1 0 5 low_octave empty empty 0 -8 0 10 -262144
-1 -1 1;
#X text 107 180 -2;
#X text 125 180 -1;
#X text 145 180 0;
#X text 158 180 +1;
#X text 176 180 +2;
#X msg 37 156 2;
#X obj 209 156 bng 17 250 50 0 regen_high empty empty 17 7 0 10 -262144
-1 -1;
#X obj 209 196 bng 17 250 50 0 regen_low empty empty 17 7 0 10 -262144
-1 -1;
#X obj 247 76 loadbang;
#X obj 247 156 bng 17 250 50 0 empty empty empty 17 7 0 10 -262144
-1 -1;
#X obj 247 196 bng 17 250 50 0 empty empty empty 17 7 0 10 -262144
-1 -1;
#X msg 37 196 1;
#X obj 110 236 hsl 114 17 0 0.5 0 0 master_volume empty empty -2 -8
0 10 -262144 -1 -1 4520 1;
#X msg 37 236 0.2;
#X text 105 220 quiet;
#X text 200 220 loud;
#X obj 110 276 hsl 114 17 -600 -50 0 0 master_tempo_pre empty empty
-2 -8 0 10 -262144 -1 -1 3736 1;
#X text 105 260 slow;
#X text 200 260 fast;
#X msg 37 276 -350;
#X obj 397 376 r master_tempo_pre;
#X obj 397 406 * -1;
#X obj 397 436 s master_tempo;
#X connect 0 0 9 0;
#X connect 1 0 0 0;
#X connect 1 1 3 0;
#X connect 1 2 4 0;
#X connect 1 3 5 0;
#X connect 1 4 6 0;
#X connect 1 5 7 0;
#X connect 1 6 8 0;
#X connect 3 0 9 0;
#X connect 4 0 9 0;
#X connect 5 0 9 0;
#X connect 6 0 9 0;
#X connect 7 0 9 0;
#X connect 8 0 9 0;
#X connect 10 0 18 0;
#X connect 10 0 32 0;
#X connect 10 0 38 0;
#X connect 10 0 40 0;
#X connect 18 0 2 0;
#X connect 19 0 1 0;
#X connect 32 0 20 0;
#X connect 35 0 36 0;
#X connect 35 0 37 0;
#X connect 36 0 33 0;
#X connect 37 0 34 0;
#X connect 38 0 26 0;
#X connect 40 0 39 0;
#X connect 40 0 46 0;
#X connect 46 0 43 0;
#X connect 47 0 48 0;
#X connect 48 0 49 0;
#X coords 0 -1 1 1 133 200 2 100 100;
#X restore -40 41 pd controls;
#X obj 268 71 generator-high;
#X obj 416 71 generator-low;
#X obj 270 311 assembler-low;
#X obj 110 311 assembler-high;
#X obj 268 41 r regen_high;
#X obj 416 41 r regen_low;
#X obj 110 371 synthesizer;
#X obj 110 431 dac~ 1 2;
#X obj 270 371 synthesizer;
#X obj 110 101 metro 5600;
#X obj 167 41 r master_tempo;
#X obj 110 41 tgl 47 0 empty empty empty 17 7 0 10 -262144 -1 -1 1
1;
#X obj 110 131 bng 17 250 50 0 empty empty empty 17 7 0 10 -262144
-1 -1;
#X obj 167 71 * 17;
#X obj 110 341 bng 17 250 50 0 empty empty empty 17 7 0 10 -262144
-1 -1;
#X obj 270 341 bng 17 250 50 0 empty empty empty 17 7 0 10 -262144
-1 -1;
#X connect 0 0 21 3;
#X connect 1 0 21 1;
#X connect 2 0 21 2;
#X connect 3 0 21 0;
#X connect 3 1 1 0;
#X connect 3 2 2 0;
#X connect 4 0 1 1;
#X connect 4 1 6 0;
#X connect 5 0 2 1;
#X connect 5 1 7 0;
#X connect 8 0 12 1;
#X connect 8 1 15 0;
#X connect 9 0 11 1;
#X connect 9 1 16 0;
#X connect 10 0 20 3;
#X connect 11 0 20 2;
#X connect 12 0 20 1;
#X connect 13 0 20 0;
#X connect 13 1 12 0;
#X connect 13 2 11 0;
#X connect 14 0 3 0;
#X connect 14 1 13 0;
#X connect 18 0 4 0;
#X connect 18 1 5 0;
#X connect 19 0 8 0;
#X connect 19 1 9 0;
#X connect 20 0 33 0;
#X connect 20 0 26 0;
#X connect 20 1 26 1;
#X connect 21 0 32 0;
#X connect 21 0 24 0;
#X connect 21 1 24 1;
#X connect 22 0 18 0;
#X connect 23 0 19 0;
#X connect 24 0 25 0;
#X connect 24 1 25 1;
#X connect 26 0 25 0;
#X connect 26 1 25 1;
#X connect 27 0 30 0;
#X connect 28 0 31 0;
#X connect 29 0 27 0;
#X connect 30 0 14 0;
#X connect 31 0 27 1;
