#N canvas 229 339 450 300 10;
#X obj 56 33 bng 15 250 50 0 empty empty empty 17 7 0 10 -262144 -1
-1;
#X obj 56 91 measure-high;
#X obj 56 121 synthesizer;
#X obj 56 151 dac~ 1 2;
#X obj 56 61 t b b;
#X msg 145 91 0 67 69 71 72 74 76 78;
#X connect 0 0 4 0;
#X connect 1 0 2 0;
#X connect 1 1 2 1;
#X connect 2 0 3 0;
#X connect 2 1 3 1;
#X connect 4 0 1 0;
#X connect 4 1 5 0;
#X connect 5 0 2 2;
