#N canvas -8 -8 1366 725 10;
#X obj 56 33 bng 15 250 50 0 empty empty empty 17 7 0 10 -262144 -1
-1;
#X obj 77 91 measure-high;
#X obj 56 182 synthesizer;
#X obj 56 61 t b b b;
#X obj 146 122 t l l;
#X obj 77 122 t l l;
#X obj 196 122 t l l;
#X obj 27 122 t b b;
#X obj 3 152 print start;
#X obj 84 152 print dur;
#X obj 152 152 print pitch;
#X obj 230 152 print key;
#X msg 306 101 0 67 69 71 72 74 76 78;
#X msg 306 131 0 67 69 71 72 74 76 78;
#X msg 306 161 0 67 69 71 72 74 76 78;
#X msg 306 191 0 67 69 71 72 74 76 78;
#X msg 306 221 0 67 69 71 72 74 76 78;
#X msg 306 251 0 67 69 71 72 74 76 78;
#X msg 306 281 0 67 69 71 72 74 76 78;
#X obj 306 71 sel 0 1 2 3 4 5 6;
#X obj 166 92 r keylist;
#X obj 306 41 hradio 17 1 0 7 empty empty empty 0 -8 0 10 -262144 -1
-1 2;
#X obj 306 311 s keylist;
#X connect 0 0 3 0;
#X connect 1 0 5 0;
#X connect 1 1 4 0;
#X connect 3 0 7 0;
#X connect 3 1 1 0;
#X connect 3 2 21 0;
#X connect 4 0 2 2;
#X connect 4 1 10 0;
#X connect 5 0 2 1;
#X connect 5 1 9 0;
#X connect 6 0 2 3;
#X connect 6 1 11 0;
#X connect 7 0 2 0;
#X connect 7 1 8 0;
#X connect 12 0 22 0;
#X connect 13 0 22 0;
#X connect 14 0 22 0;
#X connect 15 0 22 0;
#X connect 16 0 22 0;
#X connect 17 0 22 0;
#X connect 18 0 22 0;
#X connect 19 0 12 0;
#X connect 19 1 13 0;
#X connect 19 2 14 0;
#X connect 19 3 15 0;
#X connect 19 4 16 0;
#X connect 19 5 17 0;
#X connect 19 6 18 0;
#X connect 20 0 6 0;
#X connect 21 0 19 0;
