#N canvas 634 142 534 513 10;
#X obj 171 71 measure-high;
#X obj 203 251 r keysig;
#X obj 141 191 list;
#X obj 172 221 list;
#X obj 110 161 t b b b;
#X obj 110 41 bng 17 250 50 0 empty empty empty 17 7 0 10 -262144 -1
-1;
#X obj 171 101 t l l;
#X obj 240 101 t l l;
#X obj 198 131 print dh;
#X obj 267 131 print ph;
#X obj 110 281 synthesizer-high;
#X obj 302 101 t l l;
#X obj 365 101 t l l;
#X obj 302 71 measure-low;
#X obj 367 251 r keysig;
#X obj 338 221 list;
#X obj 309 191 list;
#X obj 280 161 t b b b;
#X obj 110 71 t b b;
#X obj 329 131 print dl;
#X obj 392 131 print pl;
#X obj 280 281 synthesizer-low;
#N canvas 580 209 450 396 keychooser 0;
#X msg 103 174 0 67 69 71 72 74 76 78;
#X obj 103 144 sel 0 1 2 3 4 5 6;
#X obj 103 114 hradio 17 1 0 7 empty empty empty 0 -8 0 10 -262144
-1 -1 4;
#X msg 103 204 0 65 67 69 70 72 74 76;
#X msg 103 234 0 60 62 64 65 67 69 71;
#X msg 103 264 0 62 64 66 67 69 71 73;
#X msg 103 294 0 70 72 74 75 77 79 81;
#X msg 103 324 0 69 71 73 74 76 78 80;
#X msg 103 354 0 63 65 67 68 70 72 74;
#X obj 103 384 s keysig;
#X obj 103 74 loadbang;
#X text 105 98 G;
#X text 123 98 F;
#X text 140 98 C;
#X text 157 98 D;
#X text 172 98 Bb;
#X text 192 98 A;
#X text 207 98 Eb;
#X connect 0 0 9 0;
#X connect 1 0 0 0;
#X connect 1 1 3 0;
#X connect 1 2 4 0;
#X connect 1 3 5 0;
#X connect 1 4 6 0;
#X connect 1 5 7 0;
#X connect 1 6 8 0;
#X connect 2 0 1 0;
#X connect 3 0 9 0;
#X connect 4 0 9 0;
#X connect 5 0 9 0;
#X connect 6 0 9 0;
#X connect 7 0 9 0;
#X connect 8 0 9 0;
#X connect 10 0 2 0;
#X coords -100 -1 1 1 125 34 2 100 100;
#X restore -40 43 pd keychooser;
#X text -34 42 G;
#X text -17 42 F;
#X text -1 42 C;
#X text 16 42 D;
#X text 31 42 Bb;
#X text 51 42 A;
#X text 66 42 Eb;
#N canvas 824 140 450 300 octave_chooser 0;
#X obj 104 115 hradio 17 1 0 5 high_octave empty empty 0 -8 0 10 -262144
-1 -1 2;
#X text 104 99 -2;
#X text 122 99 -1;
#X text 142 99 0;
#X text 155 99 +1;
#X text 173 99 +2;
#X obj 104 155 hradio 17 1 0 5 low_octave empty empty 0 -8 0 10 -262144
-1 -1 2;
#X text 104 139 -2;
#X text 122 139 -1;
#X text 142 139 0;
#X text 155 139 +1;
#X text 173 139 +2;
#X msg 69 115 2;
#X msg 69 155 2;
#X obj 47 85 loadbang;
#X connect 12 0 0 0;
#X connect 13 0 6 0;
#X connect 14 0 12 0;
#X connect 14 0 13 0;
#X coords 0 -1 1 1 100 76 2 100 100;
#X restore -40 87 pd octave_chooser;
#X obj 171 41 loadbang;
#X obj 302 41 loadbang;
#X obj 224 41 bng 17 250 50 0 empty empty empty 17 7 0 10 -262144 -1
-1;
#X obj 355 41 bng 17 250 50 0 empty empty empty 17 7 0 10 -262144 -1
-1;
#X connect 0 0 6 0;
#X connect 0 1 7 0;
#X connect 1 0 10 3;
#X connect 2 0 10 1;
#X connect 3 0 10 2;
#X connect 4 0 10 0;
#X connect 4 1 2 0;
#X connect 4 2 3 0;
#X connect 5 0 18 0;
#X connect 6 0 2 1;
#X connect 6 1 8 0;
#X connect 7 0 3 1;
#X connect 7 1 9 0;
#X connect 11 0 16 1;
#X connect 11 1 19 0;
#X connect 12 0 15 1;
#X connect 12 1 20 0;
#X connect 13 0 11 0;
#X connect 13 1 12 0;
#X connect 14 0 21 3;
#X connect 15 0 21 2;
#X connect 16 0 21 1;
#X connect 17 0 21 0;
#X connect 17 1 16 0;
#X connect 17 2 15 0;
#X connect 18 0 4 0;
#X connect 18 1 17 0;
#X connect 31 0 0 0;
#X connect 32 0 13 0;
#X connect 33 0 31 0;
#X connect 34 0 32 0;
