#N canvas 713 77 505 354 10;
#X obj 58 33 bng 15 250 50 0 empty empty empty 17 7 0 10 -262144 -1
-1;
#X obj 77 91 measure-high;
#X obj 56 182 synthesizer;
#X obj 58 61 t b b b;
#X obj 146 122 t l l;
#X obj 77 122 t l l;
#X obj 196 122 t l l;
#X obj 27 122 t b b;
#X obj 3 152 print start;
#X obj 84 152 print dur;
#X obj 152 152 print pitch;
#X obj 230 152 print key;
#X msg 306 101 0 67 69 71 72 74 76 78;
#X obj 306 71 sel 0 1 2 3 4 5 6;
#X obj 306 41 hradio 17 1 0 7 empty empty empty 0 -8 0 10 -262144 -1
-1 0;
#X msg 306 131 0 65 67 69 70 72 74 76;
#X msg 306 161 0 60 62 64 65 67 69 71;
#X msg 306 191 0 62 64 66 67 69 71 73;
#X msg 306 221 0 70 72 74 75 77 79 81;
#X msg 306 251 0 69 71 73 74 76 78 80;
#X msg 306 281 0 63 65 67 68 70 72 74;
#X obj 166 92 r keysig;
#X obj 306 311 s keysig;
#X connect 0 0 3 0;
#X connect 1 0 5 0;
#X connect 1 1 4 0;
#X connect 3 0 7 0;
#X connect 3 1 1 0;
#X connect 3 2 14 0;
#X connect 4 0 2 2;
#X connect 4 1 10 0;
#X connect 5 0 2 1;
#X connect 5 1 9 0;
#X connect 6 0 2 3;
#X connect 6 1 11 0;
#X connect 7 0 2 0;
#X connect 7 1 8 0;
#X connect 12 0 22 0;
#X connect 13 0 12 0;
#X connect 13 1 15 0;
#X connect 13 2 16 0;
#X connect 13 3 17 0;
#X connect 13 4 18 0;
#X connect 13 5 19 0;
#X connect 13 6 20 0;
#X connect 14 0 13 0;
#X connect 15 0 22 0;
#X connect 16 0 22 0;
#X connect 17 0 22 0;
#X connect 18 0 22 0;
#X connect 19 0 22 0;
#X connect 20 0 22 0;
#X connect 21 0 6 0;
