#N canvas 229 339 450 300 10;
#X obj 56 33 bng 15 250 50 0 empty empty empty 17 7 0 10 -262144 -1
-1;
#X obj 56 61 measure-high;
#X obj 56 121 print durations;
#X obj 125 91 print pitches;
#X connect 0 0 1 0;
#X connect 1 0 2 0;
#X connect 1 1 3 0;
