#N canvas 465 114 731 504 10;
#X obj 61 206 random;
#X obj 61 236 + 1;
#X floatatom 61 297 5 0 0 0 - - -;
#X floatatom 94 147 5 0 0 0 - - -;
#X floatatom 224 146 5 0 0 0 - - -;
#X obj 224 175 moses 1;
#X obj 111 206 random;
#X obj 111 236 + 1;
#X obj 61 176 t b b;
#X obj 263 205 t b f;
#X obj 224 115 expr $f2 - $f1;
#X obj 31 -4 inlet;
#X obj 31 446 outlet;
#X obj 134 446 outlet;
#X obj 484 115 random 8;
#X obj 484 175 list;
#X obj 513 175 list;
#X obj 484 85 t b;
#X obj 374 295 list;
#X obj 476 295 list;
#X obj 374 235 t b b;
#X obj 224 295 t b b;
#X obj 31 56 t b b;
#X obj 66 -2 bng 15 250 50 0 empty empty empty 17 7 0 10 -262144 -1
-1;
#X obj 374 115 list;
#X obj 403 115 list;
#X obj 94 85 f 16;
#X msg 224 355 16;
#X obj 104 115 s mh_current;
#X obj 16 146 r mh_again;
#X obj 61 326 s mh_durval;
#X obj 31 416 r mh_durations;
#X obj 134 416 r mh_pitches;
#X obj 251 325 s mh_done;
#X obj 263 265 s mh_again;
#X obj 290 235 s mh_remain;
#X obj 94 55 r mh_remain;
#X obj 224 385 s mh_remain;
#X obj 224 55 r mh_durval;
#X obj 236 85 r mh_current;
#X obj 374 55 r mh_durval;
#X obj 395 85 r mh_done;
#X obj 374 145 s mh_durlist;
#X obj 374 205 r mh_done;
#X obj 395 265 r mh_durlist;
#X obj 374 325 s mh_durations;
#X obj 476 325 s mh_pitches;
#X obj 497 265 r mh_pitchlist;
#X obj 484 55 r mh_durval;
#X obj 505 145 r mh_done;
#X obj 484 205 s mh_pitchlist;
#X obj 61 266 min;
#X connect 0 0 1 0;
#X connect 1 0 51 0;
#X connect 2 0 30 0;
#X connect 3 0 0 1;
#X connect 3 0 6 1;
#X connect 4 0 5 0;
#X connect 5 0 21 0;
#X connect 5 1 9 0;
#X connect 6 0 7 0;
#X connect 7 0 51 1;
#X connect 8 0 0 0;
#X connect 8 1 6 0;
#X connect 9 0 34 0;
#X connect 9 1 35 0;
#X connect 10 0 4 0;
#X connect 11 0 22 0;
#X connect 14 0 15 0;
#X connect 15 0 16 0;
#X connect 15 0 50 0;
#X connect 16 0 15 1;
#X connect 17 0 14 0;
#X connect 18 0 45 0;
#X connect 19 0 46 0;
#X connect 20 0 18 0;
#X connect 20 1 19 0;
#X connect 21 0 27 0;
#X connect 21 1 33 0;
#X connect 22 0 8 0;
#X connect 22 1 26 0;
#X connect 23 0 22 0;
#X connect 24 0 25 0;
#X connect 24 0 42 0;
#X connect 25 0 24 1;
#X connect 26 0 3 0;
#X connect 26 0 28 0;
#X connect 27 0 37 0;
#X connect 29 0 8 0;
#X connect 31 0 12 0;
#X connect 32 0 13 0;
#X connect 36 0 26 0;
#X connect 38 0 10 0;
#X connect 39 0 10 1;
#X connect 40 0 24 0;
#X connect 41 0 24 1;
#X connect 43 0 20 0;
#X connect 44 0 18 1;
#X connect 47 0 19 1;
#X connect 48 0 17 0;
#X connect 49 0 15 1;
#X connect 51 0 2 0;
