#N canvas 465 114 731 504 10;
#X obj 61 206 random;
#X obj 61 236 + 1;
#X floatatom 61 297 5 0 0 0 - - -;
#X floatatom 94 147 5 0 0 0 - - -;
#X floatatom 224 146 5 0 0 0 - - -;
#X obj 224 175 moses 1;
#X obj 111 206 random;
#X obj 111 236 + 1;
#X obj 61 176 t b b;
#X obj 263 205 t b f;
#X obj 224 115 expr $f2 - $f1;
#X obj 31 -4 inlet;
#X obj 31 446 outlet;
#X obj 134 446 outlet;
#X obj 484 115 random 8;
#X obj 484 175 list;
#X obj 513 175 list;
#X obj 484 85 t b;
#X obj 374 295 list;
#X obj 476 295 list;
#X obj 374 235 t b b;
#X obj 224 295 t b b;
#X obj 31 56 t b b;
#X obj 66 -2 bng 15 250 50 0 empty empty empty 17 7 0 10 -262144 -1
-1;
#X obj 374 115 list;
#X obj 403 115 list;
#X obj 94 85 f 16;
#X msg 224 355 16;
#X obj 61 266 max;
#X obj 104 115 s ml_current;
#X obj 16 146 r ml_again;
#X obj 61 326 s ml_durval;
#X obj 31 416 r ml_durations;
#X obj 134 416 r ml_pitches;
#X obj 251 325 s ml_done;
#X obj 263 265 s ml_again;
#X obj 290 235 s ml_remain;
#X obj 94 55 r ml_remain;
#X obj 224 385 s ml_remain;
#X obj 224 55 r ml_durval;
#X obj 236 85 r ml_current;
#X obj 374 55 r ml_durval;
#X obj 395 85 r ml_done;
#X obj 374 145 s ml_durlist;
#X obj 374 205 r ml_done;
#X obj 395 265 r ml_durlist;
#X obj 374 325 s ml_durations;
#X obj 476 325 s ml_pitches;
#X obj 497 265 r ml_pitchlist;
#X obj 484 55 r ml_durval;
#X obj 505 145 r ml_done;
#X obj 484 205 s ml_pitchlist;
#X connect 0 0 1 0;
#X connect 1 0 28 0;
#X connect 2 0 31 0;
#X connect 3 0 0 1;
#X connect 3 0 6 1;
#X connect 4 0 5 0;
#X connect 5 0 21 0;
#X connect 5 1 9 0;
#X connect 6 0 7 0;
#X connect 7 0 28 1;
#X connect 8 0 0 0;
#X connect 8 1 6 0;
#X connect 9 0 35 0;
#X connect 9 1 36 0;
#X connect 10 0 4 0;
#X connect 11 0 22 0;
#X connect 14 0 15 0;
#X connect 15 0 16 0;
#X connect 15 0 51 0;
#X connect 16 0 15 1;
#X connect 17 0 14 0;
#X connect 18 0 46 0;
#X connect 19 0 47 0;
#X connect 20 0 18 0;
#X connect 20 1 19 0;
#X connect 21 0 27 0;
#X connect 21 1 34 0;
#X connect 22 0 8 0;
#X connect 22 1 26 0;
#X connect 23 0 22 0;
#X connect 24 0 25 0;
#X connect 24 0 43 0;
#X connect 25 0 24 1;
#X connect 26 0 3 0;
#X connect 26 0 29 0;
#X connect 27 0 38 0;
#X connect 28 0 2 0;
#X connect 30 0 8 0;
#X connect 32 0 12 0;
#X connect 33 0 13 0;
#X connect 37 0 26 0;
#X connect 39 0 10 0;
#X connect 40 0 10 1;
#X connect 41 0 24 0;
#X connect 42 0 24 1;
#X connect 44 0 20 0;
#X connect 45 0 18 1;
#X connect 48 0 19 1;
#X connect 49 0 17 0;
#X connect 50 0 15 1;
