#N canvas 40 75 731 504 10;
#X obj 61 236 random;
#X obj 94 56 loadbang;
#X obj 61 266 + 1;
#X floatatom 61 327 5 0 0 0 - - -;
#X floatatom 94 177 5 0 0 0 - - -;
#X floatatom 224 146 5 0 0 0 - - -;
#X obj 224 175 moses 1;
#X obj 290 235 s remainder;
#X obj 104 85 r remainder;
#X obj 255 85 r current;
#X obj 104 145 s current;
#X obj 111 236 random;
#X obj 111 266 + 1;
#X obj 61 296 min;
#X obj 61 206 t b b;
#X obj 263 205 t b f;
#X obj 224 385 s remainder;
#X obj 31 176 r again;
#X obj 263 265 s again;
#X obj 224 55 r durval;
#X obj 61 356 s durval;
#X obj 224 115 expr $f2 - $f1;
#X obj 94 115 f 8;
#X msg 224 355 8;
#X obj 374 55 r durval;
#X obj 374 85 list append;
#X obj 374 115 s durlist;
#X obj 437 55 r durlist;
#X obj 31 146 r start;
#X obj 31 -4 inlet;
#X obj 31 26 s start;
#X obj 31 446 outlet;
#X obj 121 446 outlet;
#X obj 594 55 r durval;
#X obj 594 115 random 8;
#X obj 594 175 list;
#X obj 623 175 list;
#X obj 594 85 t b;
#X obj 594 205 s pitchlist;
#X obj 374 255 list;
#X obj 395 225 r durlist;
#X obj 374 285 s durations;
#X obj 464 255 list;
#X obj 485 225 r pitchlist;
#X obj 464 285 s pitches;
#X obj 374 195 t b b;
#X obj 374 165 r done;
#X obj 251 325 s done;
#X obj 224 295 t b b;
#X obj 506 55 r done;
#X obj 615 145 r done;
#X obj 31 416 r durations;
#X obj 121 416 r pitches;
#X connect 0 0 2 0;
#X connect 1 0 22 0;
#X connect 2 0 13 0;
#X connect 3 0 20 0;
#X connect 4 0 0 1;
#X connect 4 0 11 1;
#X connect 5 0 6 0;
#X connect 6 0 48 0;
#X connect 6 1 15 0;
#X connect 8 0 22 0;
#X connect 9 0 21 1;
#X connect 11 0 12 0;
#X connect 12 0 13 1;
#X connect 13 0 3 0;
#X connect 14 0 0 0;
#X connect 14 1 11 0;
#X connect 15 0 18 0;
#X connect 15 1 7 0;
#X connect 17 0 14 0;
#X connect 19 0 21 0;
#X connect 21 0 5 0;
#X connect 22 0 10 0;
#X connect 22 0 4 0;
#X connect 23 0 16 0;
#X connect 24 0 25 0;
#X connect 25 0 26 0;
#X connect 27 0 25 1;
#X connect 28 0 14 0;
#X connect 29 0 30 0;
#X connect 33 0 37 0;
#X connect 34 0 35 0;
#X connect 35 0 36 0;
#X connect 35 0 38 0;
#X connect 36 0 35 1;
#X connect 37 0 34 0;
#X connect 39 0 41 0;
#X connect 40 0 39 1;
#X connect 42 0 44 0;
#X connect 43 0 42 1;
#X connect 45 0 39 0;
#X connect 45 1 42 0;
#X connect 46 0 45 0;
#X connect 48 0 23 0;
#X connect 48 1 47 0;
#X connect 49 0 25 1;
#X connect 50 0 35 1;
#X connect 51 0 31 0;
#X connect 52 0 32 0;
