#N canvas 815 124 976 683 10;
#X obj 118 29 inlet;
#X obj 208 29 inlet;
#X obj 309 29 inlet;
#X obj 29 299 i;
#X obj 52 299 + 1;
#X floatatom 29 330 5 0 0 0 - - -;
#X msg 44 269 0;
#X obj 77 330 moses;
#X msg 29 149 1;
#X msg 92 119 0;
#X obj 44 239 t b;
#X obj 127 390 + 1;
#X obj 104 390 i 0;
#X floatatom 104 421 5 0 0 0 - - -;
#X obj 199 179 list;
#X obj 199 209 zl nth;
#X obj 199 119 t b f;
#X floatatom 199 240 5 0 0 0 - - -;
#X obj 29 89 t b b;
#X obj 319 179 list;
#X obj 319 209 zl nth;
#X obj 319 119 t b f;
#X obj 319 329 list;
#X obj 319 269 t b f;
#X obj 319 359 zl nth;
#X floatatom 319 420 5 0 0 0 - - -;
#X obj 174 420 moses;
#X obj 104 360 t b b;
#X obj 201 360 list length;
#X obj 201 330 list;
#X obj 201 482 bng 15 250 50 0 empty empty empty 17 7 0 10 -262144
-1 -1;
#X obj 319 449 mtof;
#X obj 319 479 osc~;
#X msg 29 390 0;
#X obj 319 509 *~;
#X msg 355 479 0.2;
#X msg 428 479 0;
#X floatatom 319 240 5 0 0 0 - - -;
#X obj 104 180 bng 15 250 50 0 empty empty empty 17 7 0 10 -262144
-1 -1;
#X obj 104 300 - 1;
#X obj 201 390 + 1;
#X obj 294 91 bng 15 250 50 0 empty empty empty 17 7 0 10 -262144 -1
-1;
#X floatatom 232 179 5 0 0 0 - - -;
#X msg 56 119 1;
#X obj 29 29 inlet;
#X obj 350 421 bng 15 250 50 0 empty empty empty 17 7 0 10 -262144
-1 -1;
#X msg 516 89 0 67 69 71 72 74 76 78;
#X obj 319 539 dac~ 1 2;
#X obj 64 31 bng 15 250 50 0 empty empty empty 17 7 0 10 -262144 -1
-1;
#X msg 516 149 6 2 0;
#X msg 516 209 2 5 1;
#X obj 501 61 bng 15 250 50 0 empty empty empty 17 7 0 10 -262144 -1
-1;
#X obj 29 179 metro 350;
#X obj 39 59 s sl_start;
#X obj 118 59 s sl_durlist;
#X obj 208 59 s sl_pitchlist;
#X obj 309 59 s sl_keylist;
#X obj 92 89 r sl_done;
#X obj 56 149 s sl_note_index;
#X obj 44 209 r sl_note_index;
#X obj 104 270 r sl_currdur;
#X obj 29 360 r sl_done;
#X obj 174 450 s sl_note_index;
#X obj 201 510 s sl_done;
#X obj 222 300 r sl_durlist;
#X obj 199 269 s sl_currdur;
#X obj 220 149 r sl_durlist;
#X obj 199 89 r sl_note_index;
#X obj 319 89 r sl_note_index;
#X obj 340 149 r sl_pitchlist;
#X obj 340 299 r sl_keylist;
#X obj 355 449 r sl_start;
#X obj 428 449 r sl_done;
#X obj 516 119 s sl_keylist;
#X obj 516 179 s sl_pitchlist;
#X obj 516 239 s sl_durlist;
#X obj 319 390 expr $f1 + ($f2 * 12);
#X obj 442 360 i 0;
#X obj 442 300 r low_octave;
#X obj 442 330 - 3;
#X connect 0 0 54 0;
#X connect 1 0 55 0;
#X connect 2 0 56 0;
#X connect 3 0 4 0;
#X connect 3 0 5 0;
#X connect 4 0 3 1;
#X connect 5 0 7 0;
#X connect 6 0 3 1;
#X connect 7 1 27 0;
#X connect 8 0 52 0;
#X connect 9 0 52 0;
#X connect 10 0 6 0;
#X connect 11 0 12 1;
#X connect 12 0 11 0;
#X connect 12 0 13 0;
#X connect 13 0 26 0;
#X connect 14 0 15 0;
#X connect 15 0 17 0;
#X connect 16 0 14 0;
#X connect 16 1 42 0;
#X connect 17 0 65 0;
#X connect 18 0 8 0;
#X connect 18 1 43 0;
#X connect 19 0 20 0;
#X connect 20 0 37 0;
#X connect 21 0 19 0;
#X connect 21 1 20 1;
#X connect 22 0 24 0;
#X connect 23 0 22 0;
#X connect 23 1 24 1;
#X connect 24 0 76 0;
#X connect 25 0 45 0;
#X connect 25 0 31 0;
#X connect 26 0 62 0;
#X connect 26 1 30 0;
#X connect 27 0 12 0;
#X connect 27 1 29 0;
#X connect 28 0 40 0;
#X connect 29 0 28 0;
#X connect 30 0 63 0;
#X connect 31 0 32 0;
#X connect 32 0 34 0;
#X connect 33 0 12 0;
#X connect 34 0 47 0;
#X connect 34 0 47 1;
#X connect 35 0 34 1;
#X connect 36 0 34 1;
#X connect 37 0 23 0;
#X connect 39 0 7 1;
#X connect 40 0 26 1;
#X connect 42 0 15 1;
#X connect 43 0 58 0;
#X connect 44 0 18 0;
#X connect 44 0 53 0;
#X connect 46 0 73 0;
#X connect 48 0 18 0;
#X connect 49 0 74 0;
#X connect 50 0 75 0;
#X connect 51 0 46 0;
#X connect 51 0 49 0;
#X connect 51 0 50 0;
#X connect 52 0 3 0;
#X connect 52 0 38 0;
#X connect 57 0 9 0;
#X connect 57 0 43 0;
#X connect 59 0 10 0;
#X connect 60 0 39 0;
#X connect 61 0 33 0;
#X connect 64 0 29 1;
#X connect 66 0 14 1;
#X connect 67 0 16 0;
#X connect 67 0 41 0;
#X connect 68 0 21 0;
#X connect 69 0 19 1;
#X connect 70 0 22 1;
#X connect 71 0 35 0;
#X connect 72 0 36 0;
#X connect 76 0 25 0;
#X connect 77 0 76 1;
#X connect 78 0 79 0;
#X connect 79 0 77 0;
