#N canvas 338 316 450 300 10;
#X obj 19 99 mtof;
#X obj 19 129 osc~;
#X obj 18 249 outlet~;
#X obj 77 249 outlet~;
#X obj 19 39 inlet;
#X obj 19 219 *~ 0.2;
#X obj 19 159 spigot~;
#X obj 58 39 inlet;
#X obj 19 69 t b f;
#X obj 52 189 r master_volume;
#X obj 58 131 tgl 15 0 empty empty empty 17 7 0 10 -262144 -1 -1 0
1;
#X connect 0 0 1 0;
#X connect 1 0 6 0;
#X connect 4 0 8 0;
#X connect 5 0 2 0;
#X connect 5 0 3 0;
#X connect 6 1 5 0;
#X connect 7 0 10 0;
#X connect 8 1 0 0;
#X connect 9 0 5 1;
#X connect 10 0 6 1;
