#N canvas 294 0 976 683 10;
#X obj 29 29 inlet;
#X obj 56 89 s durlist;
#X obj 109 29 inlet;
#X obj 109 59 s pitchlist;
#X obj 199 29 inlet;
#X obj 199 59 s keylist;
#X obj 29 639 outlet~;
#X obj 114 640 outlet~;
#X obj 29 389 i;
#X obj 52 389 + 1;
#X floatatom 29 420 5 0 0 0 - - -;
#X msg 44 359 0;
#X obj 29 59 t b l;
#X obj 29 119 s start;
#X obj 29 149 r start;
#X obj 77 420 moses;
#X obj 104 360 r currdur;
#X msg 29 239 1;
#X msg 92 209 0;
#X obj 92 179 r done;
#X obj 44 329 t b;
#X obj 44 299 r note_index;
#X obj 127 480 + 1;
#X obj 104 480 i 0;
#X floatatom 104 511 5 0 0 0 - - -;
#X obj 159 199 list;
#X obj 180 169 r durlist;
#X obj 159 229 zl nth;
#X obj 159 109 r note_index;
#X obj 159 139 t b f;
#X floatatom 159 260 5 0 0 0 - - -;
#X obj 159 289 s currdur;
#X obj 29 179 t b b;
#X obj 319 119 list;
#X obj 319 149 zl nth;
#X obj 319 29 r note_index;
#X obj 319 59 t b f;
#X obj 340 89 r pitchlist;
#X obj 319 269 list;
#X obj 340 239 r keylist;
#X obj 319 209 t b f;
#X obj 319 299 zl nth;
#X floatatom 319 330 5 0 0 0 - - -;
#X obj 319 359 s currpitch;
#X obj 174 480 moses;
#X obj 104 450 t b b;
#X obj 201 420 list length;
#X obj 201 390 list;
#X obj 222 360 r durlist;
#X obj 201 542 bng 15 250 50 0 empty empty empty 17 7 0 10 -262144
-1 -1;
#X obj 201 570 s done;
#X obj 319 389 r currpitch;
#X obj 319 449 mtof;
#X obj 319 479 osc~;
#X obj 174 510 s note_index;
#X obj 44 450 r done;
#X msg 44 480 0;
#X obj 390 391 bng 15 250 50 0 empty empty empty 17 7 0 10 -262144
-1 -1;
#X obj 319 509 *~;
#X obj 355 449 r start;
#X msg 355 479 0.2;
#X obj 408 449 r done;
#X msg 408 479 0;
#X floatatom 319 420 5 0 0 0 - - -;
#X floatatom 319 180 5 0 0 0 - - -;
#X obj 104 270 bng 15 250 50 0 empty empty empty 17 7 0 10 -262144
-1 -1;
#X obj 29 269 metro 1000;
#X obj 104 390 - 1;
#X obj 201 450 + 1;
#X obj 56 239 s note_index;
#X obj 236 111 bng 15 250 50 0 empty empty empty 17 7 0 10 -262144
-1 -1;
#X floatatom 192 199 5 0 0 0 - - -;
#X msg 56 209 1;
#X obj 319 539 s~ outL;
#X obj 377 539 s~ outR;
#X obj 29 609 r~ outL;
#X obj 114 610 r~ outR;
#X connect 0 0 12 0;
#X connect 2 0 3 0;
#X connect 4 0 5 0;
#X connect 8 0 9 0;
#X connect 8 0 10 0;
#X connect 9 0 8 1;
#X connect 10 0 15 0;
#X connect 11 0 8 1;
#X connect 12 0 13 0;
#X connect 12 1 1 0;
#X connect 14 0 32 0;
#X connect 15 1 45 0;
#X connect 16 0 67 0;
#X connect 17 0 66 0;
#X connect 18 0 66 0;
#X connect 19 0 18 0;
#X connect 19 0 72 0;
#X connect 20 0 11 0;
#X connect 21 0 20 0;
#X connect 22 0 23 1;
#X connect 23 0 22 0;
#X connect 23 0 24 0;
#X connect 24 0 44 0;
#X connect 25 0 27 0;
#X connect 26 0 25 1;
#X connect 27 0 30 0;
#X connect 28 0 29 0;
#X connect 28 0 70 0;
#X connect 29 0 25 0;
#X connect 29 1 71 0;
#X connect 30 0 31 0;
#X connect 32 0 17 0;
#X connect 32 1 72 0;
#X connect 33 0 34 0;
#X connect 34 0 64 0;
#X connect 35 0 36 0;
#X connect 36 0 33 0;
#X connect 36 1 34 1;
#X connect 37 0 33 1;
#X connect 38 0 41 0;
#X connect 39 0 38 1;
#X connect 40 0 38 0;
#X connect 40 1 41 1;
#X connect 41 0 42 0;
#X connect 42 0 43 0;
#X connect 44 0 54 0;
#X connect 44 1 49 0;
#X connect 45 0 23 0;
#X connect 45 1 47 0;
#X connect 46 0 68 0;
#X connect 47 0 46 0;
#X connect 48 0 47 1;
#X connect 49 0 50 0;
#X connect 51 0 57 0;
#X connect 51 0 63 0;
#X connect 52 0 53 0;
#X connect 53 0 58 0;
#X connect 55 0 56 0;
#X connect 56 0 23 0;
#X connect 58 0 74 0;
#X connect 58 0 73 0;
#X connect 59 0 60 0;
#X connect 60 0 58 1;
#X connect 61 0 62 0;
#X connect 62 0 58 1;
#X connect 63 0 52 0;
#X connect 64 0 40 0;
#X connect 66 0 8 0;
#X connect 66 0 65 0;
#X connect 67 0 15 1;
#X connect 68 0 44 1;
#X connect 71 0 27 1;
#X connect 72 0 69 0;
#X connect 75 0 6 0;
#X connect 76 0 7 0;
