#N canvas 0 0 1354 683 10;
#X obj 29 29 inlet;
#X obj 56 89 s durlist;
#X obj 109 29 inlet;
#X obj 109 59 s pitchlist;
#X obj 199 29 inlet;
#X obj 199 59 s keylist;
#X obj 114 610 r outR;
#X obj 29 609 r outL;
#X obj 29 639 outlet~;
#X obj 114 640 outlet~;
#X obj 29 389 i;
#X obj 52 389 + 1;
#X floatatom 29 420 5 0 0 0 - - -;
#X msg 44 359 0;
#X obj 29 59 t b l;
#X obj 29 119 s start;
#X obj 29 149 r start;
#X msg 449 59 1 2 4 1;
#X obj 459 89 s durlist;
#X obj 459 209 s keylist;
#X obj 459 149 s pitchlist;
#X msg 449 179 0 67 69 71 72 74 76 78;
#X obj 429 31 bng 15 250 50 0 empty empty empty 17 7 0 10 -262144 -1
-1;
#X obj 77 420 moses;
#X obj 104 360 r currdur;
#X msg 29 239 1;
#X msg 92 209 0;
#X obj 92 179 r done;
#X obj 44 329 t b;
#X obj 44 299 r note_index;
#X obj 127 480 + 1;
#X obj 104 480 i 0;
#X floatatom 104 511 5 0 0 0 - - -;
#X obj 434 235 bng 15 250 50 0 empty empty empty 17 7 0 10 -262144
-1 -1;
#X obj 444 263 s start;
#X obj 434 295 bng 15 250 50 0 empty empty empty 17 7 0 10 -262144
-1 -1;
#X obj 444 324 s done;
#X obj 159 199 list;
#X obj 180 169 r durlist;
#X obj 159 229 zl nth;
#X obj 159 109 r note_index;
#X obj 159 139 t b f;
#X floatatom 159 260 5 0 0 0 - - -;
#X obj 159 289 s currdur;
#X obj 29 179 t b b;
#X msg 56 209 0;
#X obj 56 239 s note_index;
#X obj 319 119 list;
#X obj 319 149 zl nth;
#X obj 319 29 r note_index;
#X obj 319 59 t b f;
#X obj 340 89 r pitchlist;
#X obj 319 269 list;
#X obj 340 239 r keylist;
#X obj 319 209 t b f;
#X obj 319 299 zl nth;
#X floatatom 319 330 5 0 0 0 - - -;
#X obj 319 359 s currpitch;
#X obj 174 450 moses;
#X obj 104 450 t b b;
#X obj 201 420 list length;
#X obj 201 390 list;
#X obj 222 360 r durlist;
#X obj 201 512 bng 15 250 50 0 empty empty empty 17 7 0 10 -262144
-1 -1;
#X obj 201 540 s done;
#X obj 319 389 r currpitch;
#X obj 319 449 mtof;
#X obj 319 479 osc~;
#X obj 319 539 dac~ 1 2;
#X obj 174 480 s note_index;
#X obj 44 450 r done;
#X msg 44 480 0;
#X obj 390 391 bng 15 250 50 0 empty empty empty 17 7 0 10 -262144
-1 -1;
#X obj 319 509 *~;
#X obj 355 449 r start;
#X msg 355 479 0.2;
#X obj 408 449 r done;
#X msg 408 479 0;
#X floatatom 319 420 5 0 0 0 - - -;
#X floatatom 319 180 5 0 0 0 - - -;
#X obj 104 270 bng 15 250 50 0 empty empty empty 17 7 0 10 -262144
-1 -1;
#X obj 29 269 metro 1000;
#X obj 104 390 - 1;
#X msg 449 119 4 5 7 6;
#X connect 0 0 14 0;
#X connect 2 0 3 0;
#X connect 4 0 5 0;
#X connect 6 0 9 0;
#X connect 7 0 8 0;
#X connect 10 0 11 0;
#X connect 10 0 12 0;
#X connect 11 0 10 1;
#X connect 12 0 23 0;
#X connect 13 0 10 1;
#X connect 14 0 15 0;
#X connect 14 1 1 0;
#X connect 16 0 44 0;
#X connect 17 0 18 0;
#X connect 21 0 19 0;
#X connect 22 0 17 0;
#X connect 22 0 83 0;
#X connect 22 0 21 0;
#X connect 23 1 59 0;
#X connect 24 0 82 0;
#X connect 25 0 81 0;
#X connect 26 0 81 0;
#X connect 27 0 26 0;
#X connect 27 0 45 0;
#X connect 28 0 13 0;
#X connect 29 0 28 0;
#X connect 30 0 31 1;
#X connect 31 0 30 0;
#X connect 31 0 32 0;
#X connect 32 0 58 0;
#X connect 33 0 34 0;
#X connect 35 0 36 0;
#X connect 37 0 39 0;
#X connect 38 0 37 1;
#X connect 39 0 42 0;
#X connect 40 0 41 0;
#X connect 41 0 37 0;
#X connect 41 1 39 1;
#X connect 42 0 43 0;
#X connect 44 0 25 0;
#X connect 44 1 45 0;
#X connect 45 0 46 0;
#X connect 47 0 48 0;
#X connect 48 0 79 0;
#X connect 49 0 50 0;
#X connect 50 0 47 0;
#X connect 50 1 48 1;
#X connect 51 0 47 1;
#X connect 52 0 55 0;
#X connect 53 0 52 1;
#X connect 54 0 52 0;
#X connect 54 1 55 1;
#X connect 55 0 56 0;
#X connect 56 0 57 0;
#X connect 58 0 69 0;
#X connect 58 1 63 0;
#X connect 59 0 31 0;
#X connect 59 1 61 0;
#X connect 60 0 58 1;
#X connect 61 0 60 0;
#X connect 62 0 61 1;
#X connect 63 0 64 0;
#X connect 65 0 72 0;
#X connect 65 0 78 0;
#X connect 66 0 67 0;
#X connect 67 0 73 0;
#X connect 70 0 71 0;
#X connect 71 0 31 0;
#X connect 73 0 68 0;
#X connect 73 0 68 1;
#X connect 74 0 75 0;
#X connect 75 0 73 1;
#X connect 76 0 77 0;
#X connect 77 0 73 1;
#X connect 78 0 66 0;
#X connect 79 0 54 0;
#X connect 81 0 10 0;
#X connect 81 0 80 0;
#X connect 82 0 23 1;
#X connect 83 0 20 0;
