#N canvas 359 303 450 351 10;
#X obj 19 39 inlet;
#X obj 58 39 inlet;
#X obj 137 39 inlet;
#X obj 176 39 inlet;
#X obj 215 39 inlet;
#X text 57 23 vel;
#X text 136 23 vol;
#X text 175 23 pan;
#X obj 19 215 *~;
#X obj 19 245 outlet~;
#X obj 71 245 outlet~;
#X obj 137 215 f;
#X obj 88 155 route 0 1;
#X obj 19 155 route 0 1;
#X obj 88 124 pack f f;
#X obj 88 94 f;
#X obj 88 65 t b f;
#X obj 19 124 pack f f;
#X obj 19 94 f;
#X obj 19 65 t b f;
#X obj 215 99 f;
#N canvas 636 339 450 300 synth1 0;
#X obj 9 19 inlet;
#X obj 48 19 inlet;
#X text 47 3 vel;
#X text 8 3 pit;
#X obj 9 49 poly 1 1;
#X obj 9 79 pack 0 0 0;
#X obj 9 109 route 1;
#X obj 9 139 unpack 0 0;
#X obj 9 199 mtof;
#X obj 9 259 *~;
#X obj 9 229 osc~;
#X obj 9 319 outlet~;
#X obj 87 19 inlet;
#X text 86 3 adsr;
#X obj 9 289 *~;
#X obj 108 229 sel 0;
#X obj 9 169 sel 0;
#X obj 66 229 adsr;
#X connect 0 0 4 0;
#X connect 1 0 4 1;
#X connect 4 0 5 0;
#X connect 4 1 5 1;
#X connect 4 2 5 2;
#X connect 5 0 6 0;
#X connect 6 0 7 0;
#X connect 7 0 16 0;
#X connect 7 1 15 0;
#X connect 7 1 17 0;
#X connect 8 0 10 0;
#X connect 9 0 14 0;
#X connect 10 0 9 0;
#X connect 12 0 17 1;
#X connect 14 0 11 0;
#X connect 15 1 14 1;
#X connect 16 1 8 0;
#X connect 17 0 9 1;
#X restore 19 185 pd synth1;
#N canvas 671 171 450 300 synth2 0;
#X obj 9 19 inlet;
#X obj 48 19 inlet;
#X text 47 3 vel;
#X text 8 3 pit;
#X obj 9 49 poly 1 1;
#X obj 9 79 pack 0 0 0;
#X obj 9 109 route 1;
#X obj 9 139 unpack 0 0;
#X obj 9 199 mtof;
#X obj 9 259 *~;
#X obj 9 319 outlet~;
#X obj 9 229 phasor~;
#X obj 87 19 inlet;
#X text 86 3 adsr;
#X obj 66 229 adsr;
#X obj 105 229 sel 0;
#X obj 9 289 *~;
#X obj 9 169 sel 0;
#X connect 0 0 4 0;
#X connect 1 0 4 1;
#X connect 4 0 5 0;
#X connect 4 1 5 1;
#X connect 4 2 5 2;
#X connect 5 0 6 0;
#X connect 6 0 7 0;
#X connect 7 0 17 0;
#X connect 7 1 14 0;
#X connect 7 1 15 0;
#X connect 8 0 11 0;
#X connect 9 0 16 0;
#X connect 11 0 9 0;
#X connect 12 0 14 1;
#X connect 14 0 9 1;
#X connect 15 1 16 1;
#X connect 16 0 10 0;
#X connect 17 1 8 0;
#X restore 88 185 pd synth2;
#X obj 97 39 inlet;
#X text 96 22 adsr;
#X text 214 23 voice;
#X text 18 23 pitch;
#X connect 0 0 19 0;
#X connect 1 0 16 0;
#X connect 2 0 11 0;
#X connect 4 0 20 0;
#X connect 8 0 9 0;
#X connect 8 0 10 0;
#X connect 11 0 8 1;
#X connect 12 0 21 1;
#X connect 12 1 22 1;
#X connect 13 0 21 0;
#X connect 13 1 22 0;
#X connect 14 0 12 0;
#X connect 15 0 14 0;
#X connect 16 0 15 0;
#X connect 16 1 14 1;
#X connect 17 0 13 0;
#X connect 18 0 17 0;
#X connect 19 0 18 0;
#X connect 19 1 17 1;
#X connect 20 0 15 1;
#X connect 20 0 18 1;
#X connect 21 0 8 0;
#X connect 22 0 8 0;
#X connect 23 0 21 2;
#X connect 23 0 22 2;
